{
  "accessors": [
    {
      "bufferView": 2,
      "componentType": 5126,
      "count": 32369,
      "max": [
        0.9872310161590576,
        0.9975767135620117,
        0.9872307181358337
      ],
      "min": [
        -0.9872305393218994,
        -0.9975767135620117,
        -0.9872310161590576
      ],
      "type": "VEC3"
    },
    {
      "bufferView": 2,
      "byteOffset": 388428,
      "componentType": 5126,
      "count": 32369,
      "max": [
        1.0,
        1.0,
        1.0
      ],
      "min": [
        -1.0,
        -1.0,
        -1.0
      ],
      "type": "VEC3"
    },
    {
      "bufferView": 1,
      "componentType": 5126,
      "count": 32369,
      "max": [
        1.0000001192092896,
        1.0000001192092896
      ],
      "min": [
        0.0,
        0.0
      ],
      "type": "VEC2"
    },
    {
      "bufferView": 0,
      "componentType": 5125,
      "count": 190464,
      "type": "SCALAR"
    },
    {
      "bufferView": 2,
      "byteOffset": 776856,
      "componentType": 5126,
      "count": 32369,
      "max": [
        0.9872310161590576,
        0.9975767135620117,
        0.9872307181358337
      ],
      "min": [
        -0.9872305393218994,
        -0.9975767135620117,
        -0.9872310161590576
      ],
      "type": "VEC3"
    },
    {
      "bufferView": 2,
      "byteOffset": 1165284,
      "componentType": 5126,
      "count": 32369,
      "max": [
        1.0,
        1.0,
        1.0
      ],
      "min": [
        -1.0,
        -1.0,
        -1.0
      ],
      "type": "VEC3"
    },
    {
      "bufferView": 1,
      "byteOffset": 258952,
      "componentType": 5126,
      "count": 32369,
      "max": [
        1.0000001192092896,
        1.0000001192092896
      ],
      "min": [
        0.0,
        0.0
      ],
      "type": "VEC2"
    },
    {
      "bufferView": 0,
      "byteOffset": 761856,
      "componentType": 5125,
      "count": 190464,
      "type": "SCALAR"
    },
    {
      "bufferView": 3,
      "componentType": 5126,
      "count": 359,
      "max": [
        14.958333015441895
      ],
      "min": [
        0.0416666679084301
      ],
      "type": "SCALAR"
    },
    {
      "bufferView": 5,
      "componentType": 5126,
      "count": 359,
      "max": [
        0.0,
        0.9999852180480957,
        -0.0,
        0.999997079372406
      ],
      "min": [
        0.0,
        -0.9999722242355347,
        -0.0,
        0.005441236775368452
      ],
      "type": "VEC4"
    },
    {
      "bufferView": 3,
      "byteOffset": 1436,
      "componentType": 5126,
      "count": 21,
      "max": [
        14.958333015441895
      ],
      "min": [
        0.0416666679084301
      ],
      "type": "SCALAR"
    },
    {
      "bufferView": 4,
      "componentType": 5126,
      "count": 21,
      "max": [
        4.499391555786133,
        4.499391078948975,
        4.499391555786133
      ],
      "min": [
        4.499390602111816,
        4.499391078948975,
        4.499390602111816
      ],
      "type": "VEC3"
    },
    {
      "bufferView": 3,
      "byteOffset": 1520,
      "componentType": 5126,
      "count": 359,
      "max": [
        14.958333015441895
      ],
      "min": [
        0.0416666679084301
      ],
      "type": "SCALAR"
    },
    {
      "bufferView": 5,
      "byteOffset": 5744,
      "componentType": 5126,
      "count": 359,
      "max": [
        0.0,
        0.9999754428863525,
        -0.0,
        1.0
      ],
      "min": [
        0.0,
        -0.9999451041221619,
        -0.0,
        0.007007854990661144
      ],
      "type": "VEC4"
    },
    {
      "bufferView": 3,
      "byteOffset": 2956,
      "componentType": 5126,
      "count": 142,
      "max": [
        14.958333015441895
      ],
      "min": [
        0.0416666679084301
      ],
      "type": "SCALAR"
    },
    {
      "bufferView": 4,
      "byteOffset": 252,
      "componentType": 5126,
      "count": 142,
      "max": [
        4.565399646759033,
        4.565399169921875,
        4.565399646759033
      ],
      "min": [
        4.565398693084717,
        4.565399169921875,
        4.565398693084717
      ],
      "type": "VEC3"
    }
  ],
  "animations": [
    {
      "channels": [
        {
          "sampler": 0,
          "target": {
            "node": 3,
            "path": "rotation"
          }
        },
        {
          "sampler": 1,
          "target": {
            "node": 3,
            "path": "scale"
          }
        },
        {
          "sampler": 2,
          "target": {
            "node": 5,
            "path": "rotation"
          }
        },
        {
          "sampler": 3,
          "target": {
            "node": 5,
            "path": "scale"
          }
        }
      ],
      "name": "Gab",
      "samplers": [
        {
          "input": 8,
          "interpolation": "LINEAR",
          "output": 9
        },
        {
          "input": 10,
          "interpolation": "LINEAR",
          "output": 11
        },
        {
          "input": 12,
          "interpolation": "LINEAR",
          "output": 13
        },
        {
          "input": 14,
          "interpolation": "LINEAR",
          "output": 15
        }
      ]
    }
  ],
  "asset": {
    "extras": {
      "author": "Gaby Vaillancourt  ≠ (https://sketchfab.com/gabyvaillancourt)",
      "license": "CC-BY-NC-ND-4.0 (http://creativecommons.org/licenses/by-nc-nd/4.0/)",
      "source": "https://sketchfab.com/3d-models/earth-9d9192dfcdfd48b3ac15f0f03dfd9d2c",
      "title": "Earth"
    },
    "generator": "Sketchfab-16.63.0",
    "version": "2.0"
  },
  "bufferViews": [
    {
      "buffer": 0,
      "byteLength": 1523712,
      "name": "floatBufferViews",
      "target": 34963
    },
    {
      "buffer": 0,
      "byteLength": 517904,
      "byteOffset": 1523712,
      "byteStride": 8,
      "name": "floatBufferViews",
      "target": 34962
    },
    {
      "buffer": 0,
      "byteLength": 1553712,
      "byteOffset": 2041616,
      "byteStride": 12,
      "name": "floatBufferViews",
      "target": 34962
    },
    {
      "buffer": 0,
      "byteLength": 3524,
      "byteOffset": 3595328,
      "name": "floatBufferViews"
    },
    {
      "buffer": 0,
      "byteLength": 1956,
      "byteOffset": 3598852,
      "byteStride": 12,
      "name": "floatBufferViews"
    },
    {
      "buffer": 0,
      "byteLength": 11488,
      "byteOffset": 3600808,
      "byteStride": 16,
      "name": "floatBufferViews"
    }
  ],
  "buffers": [
    {
      "byteLength": 3612296,
      "uri": "earth.bin"
    }
  ],
  "images": [
    {
      "uri": "textures/Material.001_baseColor.jpeg"
    },
    {
      "uri": "textures/Material.002_baseColor.jpeg"
    }
  ],
  "materials": [
    {
      "doubleSided": true,
      "name": "Material.001",
      "pbrMetallicRoughness": {
        "baseColorTexture": {
          "index": 0
        },
        "roughnessFactor": 0.5
      }
    },
    {
      "alphaMode": "BLEND",
      "doubleSided": true,
      "name": "Material.002",
      "pbrMetallicRoughness": {
        "baseColorFactor": [
          1.0,
          1.0,
          1.0,
          0.41295363947775837
        ],
        "baseColorTexture": {
          "index": 1
        },
        "roughnessFactor": 0.5
      }
    }
  ],
  "meshes": [
    {
      "name": "Object_0",
      "primitives": [
        {
          "attributes": {
            "NORMAL": 1,
            "POSITION": 0,
            "TEXCOORD_0": 2
          },
          "indices": 3,
          "material": 0,
          "mode": 4
        }
      ]
    },
    {
      "name": "Object_1",
      "primitives": [
        {
          "attributes": {
            "NORMAL": 5,
            "POSITION": 4,
            "TEXCOORD_0": 6
          },
          "indices": 7,
          "material": 1,
          "mode": 4
        }
      ]
    }
  ],
  "nodes": [
    {
      "children": [
        1
      ],
      "matrix": [
        1.0,
        0.0,
        0.0,
        0.0,
        0.0,
        2.220446049250313e-16,
        -1.0,
        0.0,
        0.0,
        1.0,
        2.220446049250313e-16,
        0.0,
        0.0,
        0.0,
        0.0,
        1.0
      ],
      "name": "Sketchfab_model"
    },
    {
      "children": [
        2
      ],
      "name": "root"
    },
    {
      "children": [
        3,
        5
      ],
      "matrix": [
        1.0,
        0.0,
        0.0,
        0.0,
        0.0,
        2.220446049250313e-16,
        1.0,
        0.0,
        0.0,
        -1.0,
        2.220446049250313e-16,
        0.0,
        0.0,
        0.0,
        0.0,
        1.0
      ],
      "name": "GLTF_SceneRootNode"
    },
    {
      "children": [
        4
      ],
      "name": "Sphere_1",
      "rotation": [
        0.0,
        0.3090170621871948,
        0.0,
        0.9510564804077148
      ],
      "scale": [
        4.499391078948975,
        4.499391078948975,
        4.499391078948975
      ]
    },
    {
      "mesh": 0,
      "name": "Object_4"
    },
    {
      "children": [
        6
      ],
      "name": "Sphere.001_2",
      "rotation": [
        0.0,
        0.00010025857045548037,
        0.0,
        1.0
      ],
      "scale": [
        4.565399169921875,
        4.565399169921875,
        4.565399169921875
      ]
    },
    {
      "mesh": 1,
      "name": "Object_6"
    }
  ],
  "samplers": [
    {
      "magFilter": 9729,
      "minFilter": 9987,
      "wrapS": 10497,
      "wrapT": 10497
    }
  ],
  "scene": 0,
  "scenes": [
    {
      "name": "Sketchfab_Scene",
      "nodes": [
        0
      ]
    }
  ],
  "textures": [
    {
      "sampler": 0,
      "source": 0
    },
    {
      "sampler": 0,
      "source": 1
    }
  ]
}
